# xmcd CD database file generated by OrangeCD 5.2
#
# Track frame offsets:
#	150
#	15813
#	25864
#	41077
#	55691
#	69028
#	87886
#	100211
#	118841
#	136343
#	153874
#	167431
#	183858
#	199862
#	216778
#	231276
#	242961
#	259762
#	274389
#	289611
#
# Disc length: 4041 seconds
#
# Revision: 6
# Processed by: cddbd v1.5.1PL2 Copyright (c) Steve Scherf et al.
# Submitted via: OrangeCD 5.2
#
DISCID=0c0fc714
DTITLE=Various Artist - Country Line Dancing - Volume 2
DYEAR=2001
DGENRE=Country
TTITLE0=Eric Heatherly - Flowers On The Wall
TTITLE1=Rebecca Lynn Howard - Tennessee In My Windshield
TTITLE2=Asleep As the Wheel - Cherokee Maiden
TTITLE3=Reba McEntire - Take It Back
TTITLE4=Vince Gill - One Dance With You
TTITLE5=Lisa Angelle - I Wear Your Love (Dance Remix)
TTITLE6=Gary Allan - Runaway
TTITLE7=Toby Keith - How Do You Like Me Now? (Club Version)
TTITLE8=Jamie O'Neal - There Is No Arizona
TTITLE9=Eric Heatherly - I Don't Make The Rules (I Just Break Them)
TTITLE10=George Jones - Billy B. Badd
TTITLE11=Danni Leigh - I Feel A Heartache Coming On
TTITLE12=Big House - Cold Outside
TTITLE13=Jamie O'Neal - No More Protecting My Heart
TTITLE14=Asleep As The Wheel - Roly Poly
TTITLE15=Eric Heatherly - Wrong 5 O'Clock
TTITLE16=Sammy Kershaw - Me And Maxine
TTITLE17=Marty Stuart - Marty Stuart Visits The Moon
TTITLE18=Delert McClinton - Lovey Dovey
TTITLE19=Barbara Mandrell - You Are No Angel
EXTD=
EXTT0=
EXTT1=
EXTT2=
EXTT3=
EXTT4=
EXTT5=
EXTT6=
EXTT7=
EXTT8=
EXTT9=
EXTT10=
EXTT11=
EXTT12=
EXTT13=
EXTT14=(Vocals By Dixie Chicks)
EXTT15=
EXTT16=
EXTT17=
EXTT18=
EXTT19=
PLAYORDER=
